<svg xmlns="http://www.w3.org/2000/svg" fill="none" viewBox="0 0 50 26">
  <path fill="#335999" fill-rule="evenodd" d="M26.2 21.9a16.2 16.2 0 0 1-2.9-.5l-1-.4a8.8 8.8 0 0 1-5-8A8.8 8.8 0 0 1 26 4.2c4.8 0 8.7 3.9 8.8 8.8H38A12 12 0 0 0 26 .8a12 12 0 0 0-12 12 12.2 12.2 0 0 0 8.3 11.5c1 .3 2.3.5 3.5.6H50V22H26.2Zm1.9-5h-1.7a7.3 7.3 0 0 1-1.3-.2 4.1 4.1 0 0 1-.9-.3 3.7 3.7 0 0 1-2-3.4 3.8 3.8 0 0 1 3.9-3.8 3.8 3.8 0 0 1 3.7 3.7h3A6.9 6.9 0 0 0 26.2 6a6.8 6.8 0 0 0-6.9 6.8A6.7 6.7 0 0 0 23 19c.4.3 1 .4 1.1.5.6.2 1.5.3 2.2.3H50v-3H28Zm-16 8.2H8.8v-21H4.2V.9H12V25ZM.6 5.7v3.1h3.5v16.3h3V5.7H.8Z" clip-rule="evenodd"/>
</svg>