<svg width="39" height="36" viewBox="0 0 39 36" fill="none" xmlns="http://www.w3.org/2000/svg">
<g clip-path="url(#clip0_1_117)">
<path d="M38.8873 30.5579C38.8873 28.0093 36.7094 25.9704 34.0681 25.9704C33.8827 25.9704 33.6974 25.9704 33.5583 26.0168L32.956 26.063L33.0023 25.4607C33.0023 25.3216 33.0023 25.1827 33.0023 25.0436C33.0023 21.6609 30.2683 18.8806 26.932 18.8806C25.4028 18.8806 23.9199 19.483 22.8079 20.5025C21.6957 21.5683 21.0006 22.9584 20.8616 24.4875L20.8153 24.9972L20.3056 24.9046C20.0739 24.8583 19.8422 24.8583 19.6569 24.8583C16.8765 24.8583 14.6059 27.1288 14.6059 29.9555C14.6059 32.7358 16.8765 35.0527 19.6569 35.0527H19.7495H34.1144H34.2071C36.7557 35.1455 38.8873 33.0602 38.8873 30.5579Z" fill="#335999"/>
<path d="M12.6134 25.507C12.6598 25.8314 12.7524 26.1558 12.7987 26.4339C12.8451 26.6192 12.8914 26.8045 12.9378 26.9899C13.2158 26.3411 13.5865 25.7388 14.0499 25.229C13.5401 25.3217 13.0768 25.3681 12.6134 25.507Z" fill="#335999"/>
<path d="M22.6688 5.53506C23.1322 6.83254 23.5493 8.36171 23.8273 10.0299C25.0321 9.6592 26.1906 9.19584 27.2564 8.68608C27.5807 8.50073 27.9051 8.36171 28.1831 8.17635C26.7929 5.62774 24.8931 3.63518 22.7152 2.43038C21.9738 2.01333 21.186 1.68897 20.3519 1.45728C20.3983 1.54995 20.491 1.59629 20.5372 1.68897C21.3713 2.61573 22.0665 3.91322 22.6688 5.53506Z" fill="#335999"/>
<path d="M29.3879 8.36159C30.6854 11.0029 31.4731 14.1076 31.5658 17.4439H35.0875C34.9949 13.4588 33.5583 9.84442 31.1951 6.97144C30.917 7.24946 30.5927 7.48116 30.2683 7.71285C29.9903 7.94455 29.6659 8.12989 29.3879 8.36159Z" fill="#335999"/>
<path d="M27.5344 5.39596C28.0441 6.09103 28.5539 6.83245 28.9709 7.62021C29.5733 7.20316 30.083 6.78611 30.5927 6.36907C28.5075 4.05214 25.8198 2.29128 22.7615 1.3645C22.9005 1.41085 23.0396 1.50352 23.1785 1.54986C24.8468 2.47663 26.3296 3.77411 27.5344 5.39596Z" fill="#335999"/>
<path d="M32.1219 18.417C33.234 19.2975 34.1144 20.4095 34.6705 21.7533C34.9022 20.6876 35.0412 19.5755 35.0875 18.417H32.1219Z" fill="#335999"/>
<path d="M30.5927 17.3978C30.5 14.2468 29.805 11.3274 28.6001 8.8252C27.21 9.65931 25.6808 10.308 24.0127 10.8177C24.337 12.7176 24.476 14.7565 24.5224 16.9344C25.3101 16.7028 26.0979 16.5637 26.932 16.5637C28.2295 16.5637 29.4806 16.8881 30.5927 17.3978Z" fill="#335999"/>
<path d="M17.757 11.698C15.9034 11.698 14.1425 11.4663 12.4743 11.0956C12.15 13.0418 11.9646 15.2198 11.9646 17.444H23.1785C23.3175 17.3976 23.4102 17.3513 23.5492 17.2587C23.5029 15.0807 23.3639 12.9491 23.0395 11.0493C21.3713 11.4663 19.6104 11.698 17.757 11.698Z" fill="#335999"/>
<path d="M15.0693 24.2557C16.1351 23.4216 17.4326 22.8191 18.8691 22.6802C19.2861 21.2436 20.0739 19.8998 21.2324 18.8341C21.4177 18.695 21.5567 18.5561 21.7421 18.417H12.011C12.011 20.6413 12.1963 22.7728 12.5207 24.719C13.3085 24.4874 14.1426 24.3483 15.0693 24.2557Z" fill="#335999"/>
<path d="M6.07963 27.3606C4.82849 24.7656 4.04074 21.6609 3.9944 18.3708H0.472675C0.565353 22.3096 2.00184 25.8777 4.27244 28.7507C4.55047 28.519 4.82849 28.2873 5.10653 28.0556C5.43089 27.8239 5.75527 27.5922 6.07963 27.3606Z" fill="#335999"/>
<path d="M6.17231 8.36159C5.52358 7.94455 4.92118 7.48116 4.36511 6.97144C2.00184 9.84442 0.565353 13.4588 0.472675 17.4439H3.9944C4.08708 14.1076 4.87484 11.0029 6.17231 8.36159Z" fill="#335999"/>
<path d="M7.97954 30.4651C7.42348 29.7237 6.91375 28.9823 6.45037 28.1482C5.84797 28.5653 5.2919 28.9823 4.78218 29.4457C6.86741 31.8089 9.60136 33.6161 12.7524 34.543C12.6134 34.4966 12.4743 34.4039 12.3354 34.3576C10.7135 33.3844 9.2307 32.0406 7.97954 30.4651Z" fill="#335999"/>
<path d="M12.6134 10.2617C14.2353 10.6787 15.9498 10.8641 17.757 10.8641C19.5642 10.8641 21.2787 10.6324 22.9005 10.2617C22.8542 9.98367 22.8079 9.70563 22.7152 9.4276C22.2055 6.92532 21.4641 4.84009 20.5836 3.40359C20.0275 2.43048 19.3788 1.78175 18.7764 1.41104C18.452 1.17934 18.1277 1.08667 17.757 1.08667C17.4326 1.08667 17.0619 1.17934 16.7375 1.3647C16.3668 1.55005 16.0425 1.87443 15.6717 2.29147C14.9767 3.07923 14.3279 4.33037 13.7718 5.85954C13.3085 7.11067 12.9378 8.59351 12.6134 10.2617Z" fill="#335999"/>
<path d="M12.2427 30.048C12.2427 29.5847 12.289 29.1212 12.3816 28.7042C12.1036 27.7774 11.8719 26.8043 11.6866 25.7385C10.4355 26.1093 9.23061 26.5726 8.11853 27.1287C7.8405 27.2677 7.56247 27.4067 7.28444 27.5921C8.67459 30.187 10.5744 32.2259 12.7987 33.4308C12.8914 33.4771 13.0304 33.5697 13.1231 33.6161C12.5671 32.5503 12.2427 31.3455 12.2427 30.048Z" fill="#335999"/>
<path d="M6.54302 7.62021C8.02586 4.97891 10.0184 2.84734 12.3816 1.54986C12.5207 1.45718 12.6597 1.41085 12.7987 1.3645C9.74042 2.29128 7.05274 4.05214 4.96751 6.36907C5.24554 6.60076 5.52358 6.87879 5.84794 7.11048C6.0333 7.2495 6.26499 7.43485 6.54302 7.62021Z" fill="#335999"/>
<path d="M8.72091 5.95206C8.21118 6.60081 7.7478 7.34222 7.33076 8.08364C8.62824 8.87137 10.1111 9.52015 11.6866 9.98352C11.7329 9.70548 11.7792 9.42744 11.8256 9.19576C12.3816 6.60081 13.123 4.46923 14.0962 2.84738C14.4205 2.29133 14.7913 1.82794 15.162 1.41089C14.3279 1.64258 13.5865 1.96695 12.7987 2.384C11.3158 3.21809 9.92575 4.46923 8.72091 5.95206Z" fill="#335999"/>
<path d="M4.96751 18.417C5.01385 21.5217 5.75527 24.441 6.91373 26.897C8.30388 26.0629 9.8794 25.4141 11.5476 24.9507C11.2232 22.9582 11.0379 20.7339 11.0379 18.417H4.96751Z" fill="#335999"/>
<path d="M7.88684 9.38106C7.56247 9.19573 7.2381 9.05667 6.96007 8.87134C5.75527 11.3736 5.01385 14.2929 4.96751 17.4439H11.0379C11.0842 15.0807 11.2696 12.8565 11.5939 10.8175C10.2501 10.4468 9.04529 9.98348 7.88684 9.38106Z" fill="#335999"/>
</g>
<defs>
<clipPath id="clip0_1_117">
<rect width="38.4146" height="35" fill="white" transform="translate(0.472675 0.23999)"/>
</clipPath>
</defs>
</svg>
