<svg xmlns="http://www.w3.org/2000/svg" fill="none" viewBox="0 0 39 36">
  <g fill="#6d1b29" clip-path="url(#a)">
    <path d="M38.9 30.6A4.7 4.7 0 0 0 34 26h-1v-1a6.1 6.1 0 0 0-6-6.1 6.2 6.2 0 0 0-6.1 5.6v.5l-.6-.1h-.6a5.1 5.1 0 0 0 0 10.2h14.5c2.5 0 4.7-2 4.7-4.5Zm-26.3-5.1.2 1 .1.5a6.3 6.3 0 0 1 1.1-1.8l-1.4.3Zm10-20c.5 1.3 1 2.9 1.2 4.5a21 21 0 0 0 3.5-1.3l.9-.5a14.3 14.3 0 0 0-5.5-5.8l-2.3-1 .1.3a12 12 0 0 1 2.2 3.8Zm6.8 2.9a22 22 0 0 1 2.2 9H35A17 17 0 0 0 31 7l-.8.7-1 .7Zm-1.9-3L29 7.6l1.6-1.2a17.3 17.3 0 0 0-7.8-5l.4.2a13 13 0 0 1 4.3 3.8Zm4.6 13c1.1.9 2 2 2.6 3.4l.4-3.4h-3Zm-1.5-1a21.2 21.2 0 0 0-2-8.6 20.5 20.5 0 0 1-4.6 2c.3 2 .5 4 .5 6.1a8.4 8.4 0 0 1 2.4-.3 9 9 0 0 1 3.7.8Zm-12.8-5.7a22 22 0 0 1-5.3-.6 39.2 39.2 0 0 0-.5 6.3h11.2l.4-.1A43.2 43.2 0 0 0 23 11a21.7 21.7 0 0 1-5.2.7ZM15 24.3a7.3 7.3 0 0 1 3.8-1.6 8.4 8.4 0 0 1 2.3-3.9l.5-.4H12c0 2.2.2 4.4.5 6.3.8-.2 1.6-.4 2.6-.4Zm-9 3a21.6 21.6 0 0 1-2.1-9H.5a17.4 17.4 0 0 0 3.8 10.4l.8-.6 1-.7Zm0-19A13 13 0 0 1 4.5 7a17 17 0 0 0-4 10.4H4c.1-3.3.9-6.4 2.2-9Zm2 22.3A20 20 0 0 1 6.5 28l-1.7 1.3a17 17 0 0 0 8 5.2l-.5-.3A16.5 16.5 0 0 1 8 30.5Zm4.6-20.2c1.6.4 3.4.6 5.2.6a23 23 0 0 0 5.1-.6 8.2 8.2 0 0 0-.2-.9 19.2 19.2 0 0 0-2.1-6 5.5 5.5 0 0 0-1.8-2 1.7 1.7 0 0 0-1-.3c-.4 0-.7 0-1 .3-.4.1-.8.5-1.1.9-.7.8-1.4 2-2 3.6a28.7 28.7 0 0 0-1 4.4ZM12.2 30c0-.4 0-.9.2-1.3a28 28 0 0 1-.7-3L8 27.1l-.8.5a14 14 0 0 0 5.5 5.8l.3.2a7.7 7.7 0 0 1-.9-3.6ZM6.5 7.6a15.4 15.4 0 0 1 5.9-6l.4-.2a17.3 17.3 0 0 0-7.8 5l.8.7.7.5ZM8.7 6 7.3 8a18.5 18.5 0 0 0 4.4 2l.1-.8c.6-2.6 1.3-4.7 2.3-6.3a8.9 8.9 0 0 1 1-1.5c-.8.2-1.5.6-2.3 1a14.7 14.7 0 0 0-4 3.6ZM5 18.4c0 3.1.8 6 2 8.5a18.8 18.8 0 0 1 4.5-2 44 44 0 0 1-.5-6.5H5Zm2.9-9-1-.5a20.5 20.5 0 0 0-2 8.5H11c0-2.3.3-4.5.6-6.6a18.7 18.7 0 0 1-3.7-1.4Z"/>
  </g>
  <defs>
    <clipPath id="a">
      <path fill="#fff" d="M0 0h38.4v35H0z" transform="translate(.5 .2)"/>
    </clipPath>
  </defs>
</svg>