<svg width="51" height="66" viewBox="0 0 51 66" fill="none" xmlns="http://www.w3.org/2000/svg">
<path d="M46.3852 28.7H42.2298V16.4C42.2298 7.38 34.7501 0 25.6082 0C16.4663 0 8.98659 7.38 8.98659 16.4V28.7H4.83119C2.75348 28.7 0.675781 30.75 0.675781 32.8V61.5C0.675781 63.55 2.75348 65.6 4.83119 65.6H46.3852C48.4629 65.6 50.5406 63.55 50.5406 61.5V32.8C50.5406 30.75 48.4629 28.7 46.3852 28.7ZM29.7636 57.4H21.4528L23.115 48.38C21.0373 47.56 19.3751 45.1 19.3751 43.05C19.3751 39.77 22.2839 36.9 25.6082 36.9C28.9325 36.9 31.8413 39.77 31.8413 43.05C31.8413 45.51 30.5947 47.56 28.1015 48.38L29.7636 57.4ZM33.919 28.7H17.2974V16.4C17.2974 11.89 21.0373 8.2 25.6082 8.2C30.1792 8.2 33.919 11.89 33.919 16.4V28.7Z" fill="#335999"/>
</svg>
