<svg width="60" height="60" viewBox="0 0 60 60" fill="none" xmlns="http://www.w3.org/2000/svg">
<path d="M0 28.8C0 15.2236 0 8.43534 4.21766 4.21766C8.43534 0 15.2236 0 28.8 0H31.2C44.7764 0 51.5647 0 55.7824 4.21766C60 8.43534 60 15.2236 60 28.8V31.2C60 44.7764 60 51.5647 55.7824 55.7824C51.5647 60 44.7764 60 31.2 60H28.8C15.2236 60 8.43534 60 4.21766 55.7824C0 51.5647 0 44.7764 0 31.2V28.8Z" fill="#0077FF"/>
<path d="M31.925 43.2252C18.25 43.2252 10.45 33.8502 10.125 18.2502H16.975C17.2 29.7002 22.2499 34.5502 26.2499 35.5502V18.2502H32.7001V28.1252C36.6501 27.7002 40.7996 23.2002 42.1996 18.2502H48.6498C47.5748 24.3503 43.0748 28.8502 39.8748 30.7002C43.0748 32.2002 48.2 36.1252 50.15 43.2252H43.0498C41.5248 38.4752 37.7251 34.8002 32.7001 34.3002V43.2252H31.925Z" fill="white"/>
</svg>
