<svg width="67" height="44" viewBox="0 0 67 44" fill="none" xmlns="http://www.w3.org/2000/svg">
<path d="M29.3911 33.3182C29.9322 32.7852 30.5745 32.3625 31.2812 32.0743C31.9879 31.7862 32.7452 31.6382 33.5099 31.6388C34.2745 31.6394 35.0316 31.7886 35.7378 32.0779C36.444 32.3672 37.0856 32.7909 37.6259 33.3248C38.1661 33.8587 38.5945 34.4924 38.8866 35.1897C39.1787 35.887 39.3287 36.6342 39.328 37.3887C39.3274 38.1431 39.1762 38.8901 38.883 39.5869C38.5898 40.2837 38.1604 40.9167 37.6192 41.4498C36.5259 42.5264 35.0439 43.1303 33.4993 43.1288C31.9546 43.1273 30.4739 42.5204 29.3828 41.4416C28.2916 40.3629 27.6795 38.9006 27.6811 37.3766C27.6827 35.8525 28.2978 34.3948 29.3911 33.3182ZM11.5474 24.2741C23.6583 12.3246 43.3553 12.3246 55.4663 24.2741L49.9764 29.6907C45.6055 25.3863 39.6823 22.9688 33.5068 22.9688C27.3313 22.9688 21.4081 25.3863 17.0372 29.6907L11.5474 24.2741ZM0.567627 13.4407C18.7341 -4.48024 48.2795 -4.48024 66.446 13.4407L60.9561 18.8574C45.8174 3.92052 21.1962 3.92052 6.05749 18.8574L0.567627 13.4407Z" fill="#335999"/>
</svg>
