<svg xmlns="http://www.w3.org/2000/svg" fill="none" viewBox="0 0 51 36">
  <g fill="#6d1b29" clip-path="url(#a)">
    <path d="M15.1 23.2a14.3 14.3 0 0 1 20 0l.7.6c.5.7 1.8.5 2.8-.5l.8-.8c1-1 1.3-2.4.7-3l-.6-.6c-7.9-8-20.8-8-28.7 0l-.6.6c-.6.6-.2 2 .7 3l.8.8c1 1 2.3 1.2 2.8.5l.6-.6Z"/>
    <path d="M28.8 33c-2 2-5.2 2-7.3 0a5 5 0 0 1 0-7.3 5.1 5.1 0 1 1 7.3 7.2ZM1.5 10.3l-.4.5c-.5.6 0 1.8 1 2.8l.7.7c1 1 2.2 1.4 2.7.8l.5-.5.2-.2a27 27 0 0 1 38 0l.5.5.3.4c.4.4 1.6 0 2.6-1l.7-.7c1-1 1.5-2.2 1.1-2.7l-.4-.4-.5-.5A33.2 33.2 0 0 0 2 10l-.4.3Z"/>
  </g>
  <defs>
    <clipPath id="a">
      <path fill="#fff" d="M0 0h49.6v35H0z" transform="translate(.9 .4)"/>
    </clipPath>
  </defs>
</svg>